<?xml version="1.0" standalone="no"?>
<!DOCTYPE svg PUBLIC "-//W3C//DTD SVG 20010904//EN"
 "http://www.w3.org/TR/2001/REC-SVG-20010904/DTD/svg10.dtd">
<svg version="1.0" xmlns="http://www.w3.org/2000/svg"
 width="260.000000pt" height="260.000000pt" viewBox="0 0 260.000000 260.000000"
 preserveAspectRatio="xMidYMid meet">
<metadata>
Created by potrace 1.11, written by Peter Selinger 2001-2013
</metadata>
<g transform="translate(0.000000,260.000000) scale(0.100000,-0.100000)"
fill="#000000" stroke="none">
<path d="M1156 2590 c-306 -39 -559 -161 -772 -374 -186 -186 -299 -396 -356
-659 -30 -143 -30 -369 1 -514 55 -262 169 -472 355 -659 251 -251 554 -376
911 -377 363 -1 667 124 921 377 186 187 300 397 355 659 31 144 31 370 0 514
-55 262 -169 472 -355 659 -191 191 -412 308 -676 358 -104 20 -292 28 -384
16z m-428 -762 c9 -9 12 -122 12 -445 l0 -433 249 0 c214 0 252 -2 265 -16 20
-19 22 -144 4 -162 -17 -17 -709 -17 -726 0 -17 17 -17 1039 0 1056 7 7 44 12
98 12 54 0 91 -5 98 -12z m1340 0 c7 -7 12 -41 12 -83 0 -42 -5 -76 -12 -83
-9 -9 -82 -12 -265 -12 l-253 0 0 -139 0 -140 240 -3 c201 -3 242 -5 250 -18
14 -22 12 -144 -2 -158 -9 -9 -78 -12 -250 -12 l-238 0 0 -198 c0 -141 -3
-201 -12 -210 -16 -16 -180 -16 -196 0 -17 17 -17 1039 0 1056 17 17 709 17
726 0z"/>
</g>
</svg>
